<svg width="64" height="64" viewBox="0 0 64 64" fill="none" xmlns="http://www.w3.org/2000/svg">
<path d="M49.107 23.119C54.476 35.393 54.476 43.089 49.107 46.205C41.052 50.879 20.063 52.304 14.021 45.119C9.993 40.329 9.993 32.995 14.021 23.119C18.117 16.373 23.938 13 31.484 13C39.031 13 44.905 16.373 49.107 23.119Z" fill="url(#paint0_linear_49_369)"/>
<path fill-rule="evenodd" clip-rule="evenodd" d="M19.3928 25.8413C15.806 34.8609 16.8618 39.1747 18.6131 41.2574C19.0119 41.7316 20.123 42.5399 22.5001 43.1891C24.7747 43.8103 27.6446 44.1281 30.7728 44.1092C37.2548 44.07 43.3337 42.6178 46.0953 41.0156M19.3928 25.8413C22.4255 21.066 26.2887 19 31.484 19C36.7041 19 40.6489 21.0895 43.7898 25.938C46.2177 31.5756 47.1337 35.5374 47.1337 38.0962C47.1337 40.4026 46.4656 40.8007 46.0957 41.0154M8.89234 20.005C14.0156 11.5672 21.7272 7 31.484 7C41.2328 7 48.9728 11.5551 54.1998 19.9467L54.4298 20.3159L54.6041 20.7144C57.4104 27.13 59.1337 33.0219 59.1337 38.0962C59.1337 43.4845 57.1179 48.493 52.1187 51.3944L52.1183 51.3946C46.8246 54.4663 38.3818 56.0635 30.8454 56.109C26.9642 56.1325 22.9506 55.7516 19.3388 54.7652C15.8294 53.8068 12.0511 52.0989 9.42884 48.9806C3.15351 41.5182 4.21509 31.2739 8.46531 20.8531L8.64517 20.4121L8.89234 20.005Z" fill="#F2F2F2" fill-opacity="0.51"/>
<defs>
<linearGradient id="paint0_linear_49_369" x1="26.045" y1="25.67" x2="46.452" y2="45.204" gradientUnits="userSpaceOnUse">
<stop stop-color="#5CDD8B"/>
<stop offset="1" stop-color="#86E6A9"/>
</linearGradient>
</defs>
</svg>
