<svg width="84" height="64" viewBox="0 0 84 64" fill="none" xmlns="http://www.w3.org/2000/svg">
<path d="M27.2494 26.2139H31.9543V38.4203H27.2494V26.2139ZM21.5465 26.3823L11.9962 31.5066C11.9281 31.5425 11.8522 31.5612 11.7751 31.5612C11.6981 31.5612 11.6222 31.5425 11.5541 31.5066L2.00376 26.3823C1.79355 26.271 1.55921 26.2132 1.32138 26.2139H1.3095C0.983758 26.1947 0.663597 26.3047 0.418455 26.5201C0.173313 26.7354 0.0229578 27.0388 0 27.3643L0 38.4064H4.70076V33.1503C4.70982 33.0715 4.73851 32.9962 4.78422 32.9313C4.82993 32.8664 4.89119 32.8141 4.96238 32.779C5.03358 32.744 5.11243 32.7273 5.19172 32.7306C5.27101 32.734 5.34819 32.7571 5.41621 32.798L10.7684 35.6743C11.0336 35.8141 11.3284 35.8884 11.6282 35.8909C11.928 35.8935 12.2241 35.8241 12.4916 35.6887L18.1393 32.7784C18.2073 32.7389 18.2842 32.7171 18.3628 32.7147C18.4415 32.7124 18.5195 32.7297 18.5897 32.7651C18.66 32.8005 18.7204 32.8528 18.7654 32.9173C18.8104 32.9819 18.8386 33.0566 18.8475 33.1348V38.4064H23.5482V27.3643C23.5253 27.0391 23.3752 26.7361 23.1305 26.5208C22.8858 26.3055 22.5662 26.1953 22.2408 26.2139H22.2289C21.9911 26.2132 21.7567 26.271 21.5465 26.3823ZM55.4147 26.2139H50.6432V31.7695C50.6348 31.8462 50.6078 31.9197 50.5644 31.9835C50.521 32.0472 50.4627 32.0994 50.3945 32.1354C50.3262 32.1714 50.2502 32.1901 50.1731 32.1899C50.096 32.1897 50.0201 32.1706 49.952 32.1342L37.5865 26.3487C37.3936 26.2595 37.1837 26.2135 36.9712 26.2139H36.963C36.6372 26.1947 36.3171 26.3047 36.0719 26.5201C35.8268 26.7354 35.6764 27.0388 35.6535 27.3643V38.4069H40.3868V32.8574C40.3952 32.7808 40.4223 32.7075 40.4656 32.6438C40.509 32.58 40.5672 32.5279 40.6353 32.4919C40.7035 32.4558 40.7794 32.437 40.8564 32.4371C40.9335 32.4372 41.0093 32.4561 41.0774 32.4922L53.4916 38.2778C53.6839 38.3667 53.8933 38.4126 54.1052 38.4121C54.431 38.4312 54.7511 38.3212 54.9963 38.1058C55.2414 37.8905 55.3918 37.5872 55.4147 37.2617V26.2139ZM59.1139 38.4203V26.2139H61.2788V38.4203H59.1139ZM74.0199 38.6378C68.1962 38.6378 64.0646 36.2099 64.0646 32.3192C64.0646 28.449 68.2209 26 74.0199 26C79.8189 26 84 28.4279 84 32.3192C84 36.2105 79.9181 38.6378 74.0199 38.6378ZM74.0199 27.6179C69.6895 27.6179 66.3541 29.2797 66.3541 32.3186C66.3541 35.3798 69.6895 37.0194 74.0199 37.0194C78.3503 37.0194 81.7101 35.3798 81.7101 32.3186C81.7101 29.2797 78.3503 27.6179 74.0199 27.6179Z" fill="#C72C48"/>
</svg>
