<svg width="64" height="64" viewBox="0 0 64 64" fill="none" xmlns="http://www.w3.org/2000/svg">
<path d="M7.8416 54.2923H17.0785L23.5504 41.959L19.0711 33.4272L7.8416 54.2923ZM58.0813 33.079L53.0306 42.699L58.9457 54.1508L64 44.491L58.0813 33.079ZM56.5467 30.1335L45.764 9.37L40.4459 18.678L51.4886 39.7644L56.5467 30.1335ZM39.7501 42.8296L45.764 54.285H56.0192L44.8704 33.0536L39.7501 42.8296ZM17.54 30.4962L12.5114 20.869L6.09086 33.1225L11.0243 42.5974L17.54 30.4962ZM4.58923 36.039L0 45.0314L5.05072 54.1327L9.52636 45.5393L4.58923 36.039ZM38.7392 21.4457L33.3918 30.8154L38.2191 39.9167L43.3467 30.1408L38.7392 21.4457ZM18.5693 9L13.9545 17.909L31.901 51.9671L36.6881 42.8514L27.6195 25.581L18.5693 9Z" fill="url(#paint0_linear_52_456)"/>
<defs>
<linearGradient id="paint0_linear_52_456" x1="32.0109" y1="9.71823" x2="32.0109" y2="69.7961" gradientUnits="userSpaceOnUse">
<stop stop-color="#F2C144"/>
<stop offset="0.24" stop-color="#F1A03B"/>
<stop offset="0.57" stop-color="#F17A31"/>
<stop offset="0.84" stop-color="#F0632A"/>
<stop offset="1" stop-color="#F05A28"/>
</linearGradient>
</defs>
</svg>
