<?xml version="1.0" encoding="UTF-8" standalone="no"?>
<svg
   width="55"
   height="55"
   viewBox="0 0 55 55"
   fill="none"
   version="1.1"
   id="svg7"
   sodipodi:docname="raw.svg"
   inkscape:version="1.4 (e7c3feb1, 2024-10-09)"
   xmlns:inkscape="http://www.inkscape.org/namespaces/inkscape"
   xmlns:sodipodi="http://sodipodi.sourceforge.net/DTD/sodipodi-0.dtd"
   xmlns="http://www.w3.org/2000/svg"
   xmlns:svg="http://www.w3.org/2000/svg">
  <sodipodi:namedview
     id="namedview7"
     pagecolor="#505050"
     bordercolor="#eeeeee"
     borderopacity="1"
     inkscape:showpageshadow="0"
     inkscape:pageopacity="0"
     inkscape:pagecheckerboard="0"
     inkscape:deskcolor="#d1d1d1"
     inkscape:zoom="2.343823"
     inkscape:cx="0.85330677"
     inkscape:cy="29.01243"
     inkscape:window-width="1104"
     inkscape:window-height="1051"
     inkscape:window-x="0"
     inkscape:window-y="38"
     inkscape:window-maximized="0"
     inkscape:current-layer="svg7" />
  <path
     d="m 35.908953,21.122948 c -1.2835,-0.60055 -2.7158,-0.93604 -4.2265,-0.93604 -5.5143,0 -9.9845,4.47024 -9.9845,9.98454 0,2.1896 0.7049,4.2146 1.9,5.8604 h -7.7604 v 4.3411 h 29.5193 v -0.024 c 0.215,0.0159 0.4322,0.024 0.6512,0.024 4.795,0 8.6822,-3.8871 8.6822,-8.6822 0,-3.9305 -2.6118,-7.2509 -6.1946,-8.3205 -0.5938,-3.1711 -3.3767,-5.57094 -6.7202,-5.57094 -2.4913,0 -4.6714,1.33248 -5.8665,3.32364 z"
     fill="url(#paint0_linear_3_164)"
     id="path1"
     style="fill:url(#paint0_linear_3_164)" />
  <g
     filter="url(#filter0_i_3_164)"
     id="g2"
     transform="translate(0.42665339,12.372948)">
    <path
       d="M 28.6926,27.9462 C 35.846,27.3209 41.4573,21.3157 41.4573,14 c 0,-7.73199 -6.268,-14 -14,-14 C 20.86,0 15.3284,4.5634 13.8471,10.7059 H 11.3985 V 28 h 17.2941 z"
       fill="#ffffff"
       id="path2" />
  </g>
  <path
     d="m 16.705753,40.372948 v -0.0087 c 5.6726,-0.2277 10.2015,-4.8984 10.2015,-10.6269 0,-5.874 -4.7617,-10.6357 -10.6356,-10.6357 -4.8576,0 -8.9544896,3.25641 -10.2268796,7.7053 -3.19445,0.5749 -5.61812001,3.3688 -5.61812001,6.7288 0,3.3689 2.43648001,6.1687 5.64341001,6.7334 v 0.1038 z"
     fill="url(#paint1_linear_3_164)"
     id="path3"
     style="fill:url(#paint1_linear_3_164)" />
  <defs
     id="defs7">
    <filter
       id="filter0_i_3_164"
       x="11.3985"
       y="0"
       width="34.0588"
       height="32"
       filterUnits="userSpaceOnUse"
       color-interpolation-filters="sRGB">
      <feFlood
         flood-opacity="0"
         result="BackgroundImageFix"
         id="feFlood3" />
      <feBlend
         mode="normal"
         in="SourceGraphic"
         in2="BackgroundImageFix"
         result="shape"
         id="feBlend3" />
      <feColorMatrix
         in="SourceAlpha"
         type="matrix"
         values="0 0 0 0 0 0 0 0 0 0 0 0 0 0 0 0 0 0 127 0"
         result="hardAlpha"
         id="feColorMatrix3" />
      <feOffset
         dx="4"
         dy="4"
         id="feOffset3" />
      <feGaussianBlur
         stdDeviation="16"
         id="feGaussianBlur3" />
      <feComposite
         in2="hardAlpha"
         operator="arithmetic"
         k2="-1"
         k3="1"
         id="feComposite3"
         k1="0"
         k4="0" />
      <feColorMatrix
         type="matrix"
         values="0 0 0 0 0.933333 0 0 0 0 0.933333 0 0 0 0 0.933333 0 0 0 1 0"
         id="feColorMatrix4" />
      <feBlend
         mode="normal"
         in2="shape"
         result="effect1_innerShadow_3_164"
         id="feBlend4" />
    </filter>
    <linearGradient
       id="paint0_linear_3_164"
       x1="34.8372"
       y1="5.4263601"
       x2="46.015499"
       y2="29.0853"
       gradientUnits="userSpaceOnUse"
       gradientTransform="translate(0.42665339,12.372948)">
      <stop
         offset="0.451843"
         stop-color="#FF3A51"
         id="stop4" />
      <stop
         offset="1"
         stop-color="#C81328"
         id="stop5" />
    </linearGradient>
    <linearGradient
       id="paint1_linear_3_164"
       x1="8.8992205"
       y1="25.6611"
       x2="9.2076302"
       y2="28.276699"
       gradientUnits="userSpaceOnUse"
       gradientTransform="translate(0.42665339,12.372948)">
      <stop
         stop-color="#1A4CE5"
         id="stop6" />
      <stop
         offset="1"
         stop-color="#0C36B7"
         id="stop7" />
    </linearGradient>
  </defs>
</svg>
