<svg width="50" height="64" viewBox="0 0 50 64" fill="none" xmlns="http://www.w3.org/2000/svg">
<path d="M13.4111 0L6.68104 9.47889V14.8369L0.824725 17.6225L0.771942 17.5978V52.5545L23.6048 63.3415L25 64L26.3954 63.3415L49.228 52.5545V17.5978L49.185 17.618L43.3272 14.8315V9.47889L43.1222 9.19064L36.5968 0L29.8665 9.47889V9.48825L24.9693 2.59106L20.1102 9.43528L19.9364 9.19064L13.4111 0ZM14.6017 5.50611L17.2047 9.17192H9.61743L12.1901 5.54916L14.6017 5.50611ZM37.787 5.50611L40.3906 9.17192H32.8031L35.3753 5.54916L37.787 5.50611ZM26.1599 8.09754L28.7629 11.7632H21.1762L23.7484 8.14022L26.1599 8.09754ZM8.89793 11.0195H12.4964V23.1366L8.89793 21.4365V11.0195ZM14.344 11.0195H17.9246V25.7005L14.344 24.0092V11.0195ZM32.084 11.0195H35.6822V23.9967L32.084 25.6966V11.0195ZM37.5294 11.0195H41.1097V21.4324L37.5294 23.1237V11.0195ZM20.4563 13.6106H24.0549V28.5967L20.4563 26.8964V13.6106ZM25.9025 13.6106H29.4826V26.9256L25.9025 28.6173V13.6106ZM43.3264 17.5929L46.4947 18.8883L43.3264 20.385V17.5929ZM6.68104 17.5978V20.3895L3.51349 18.8928L6.68104 17.5978ZM3.56234 22.0022L23.6048 31.4704V60.2548L3.56215 50.7868L3.56234 22.0022ZM46.4375 22.0022V50.7868L26.3954 60.2548V31.4702L46.4375 22.0022Z" fill="black"/>
</svg>
